<?xml version="1.0" standalone="no"?>
<!DOCTYPE svg PUBLIC "-//W3C//DTD SVG 20010904//EN"
 "http://www.w3.org/TR/2001/REC-SVG-20010904/DTD/svg10.dtd">
<svg version="1.0" xmlns="http://www.w3.org/2000/svg"
 width="512.000000pt" height="512.000000pt" viewBox="0 0 512.000000 512.000000"
 preserveAspectRatio="xMidYMid meet">

<g transform="translate(0.000000,512.000000) scale(0.100000,-0.100000)"
fill="#000000" stroke="none">
<path d="M2524 5110 c-12 -4 -31 -21 -43 -36 l-21 -27 0 -1803 c0 -992 -3
-1804 -8 -1804 -4 0 -252 246 -552 546 -300 300 -558 552 -574 561 -66 35
-146 -20 -146 -100 l0 -42 668 -667 667 -668 50 0 50 0 662 662 c576 577 663
668 668 699 14 74 -50 138 -124 124 -31 -6 -111 -81 -593 -563 l-558 -557 0
1798 c0 1976 4 1839 -60 1872 -32 17 -54 18 -86 5z"/>
<path d="M168 1265 c-59 -33 -58 -23 -58 -625 0 -604 -1 -593 60 -625 26 -13
299 -15 2388 -15 1656 0 2368 3 2390 11 17 6 39 23 49 37 17 25 18 63 18 592
0 531 -1 567 -18 592 -39 58 -135 58 -174 0 -17 -25 -18 -61 -21 -525 l-3
-497 -2237 2 -2237 3 -5 502 -5 503 -26 25 c-31 32 -85 40 -121 20z"/>
</g>
</svg>
